<svg width="152" height="448" viewBox="0 0 152 448" fill="none" xmlns="http://www.w3.org/2000/svg">
<g clip-path="url(#clip0_16_1394)">
<path d="M22.75 448.5C28.7 448.5 33.5 443.7 33.5 437.75V427H22.75C16.8 427 12 431.8 12 437.75C12 443.7 16.8 448.5 22.75 448.5Z" fill="#0ACF83"/>
<path d="M12 416.25C12 410.3 16.8 405.5 22.75 405.5H33.5V427H22.75C16.8 427 12 422.2 12 416.25Z" fill="#A259FF"/>
<path d="M12 394.75C12 388.8 16.8 384 22.75 384H33.5V405.5H22.75C16.8 405.5 12 400.7 12 394.75Z" fill="#F24E1E"/>
<path d="M33.5 384H44.25C50.2 384 55 388.8 55 394.75C55 400.7 50.2 405.5 44.25 405.5H33.5V384Z" fill="#FF7262"/>
<path d="M55 416.25C55 422.2 50.2 427 44.25 427C38.3 427 33.5 422.2 33.5 416.25C33.5 410.3 38.3 405.5 44.25 405.5C50.2 405.5 55 410.3 55 416.25Z" fill="#1ABCFE"/>
</g>
<path d="M100.999 260.696L112.5 260.701L120.018 273.18L127.509 260.702L139 260.699L120.075 293.526L100.999 260.696Z" fill="#35495E"/>
<path d="M88.455 260.785L100.988 260.699L120.063 293.528L138.99 260.701L151.545 260.714L120.062 314.744L88.455 260.785Z" fill="#41B883"/>
<path fill-rule="evenodd" clip-rule="evenodd" d="M88.6095 28.078C88.6095 28.4295 88.713 28.6615 88.771 28.887C89.149 30.3535 89.9615 31.612 90.9255 32.76C92.2985 34.396 93.98 35.713 95.7025 36.9515C97.1965 38.0255 98.721 39.0755 100.221 40.1415C100.478 40.3245 100.722 40.535 101.001 40.7595C100.761 40.8895 100.561 41.004 100.353 41.1095C98.3735 42.1135 96.469 43.239 94.7135 44.6025C93.6555 45.4245 92.6325 46.298 91.91 47.4395C90.7475 49.2755 90.336 51.2315 91.2025 53.32C91.4555 53.93 91.8415 54.457 92.386 54.8465C92.5625 54.9725 92.7605 55.0975 92.967 55.1465C93.496 55.271 94.035 55.3525 94.5705 55.451L96.087 55.45C97.764 55.3005 99.2905 54.726 100.67 53.774C102.826 52.286 104.278 50.291 104.903 47.7305C105.357 45.8695 105.375 44.0065 104.84 42.154C104.789 41.9824 104.73 41.8132 104.663 41.647C104.598 41.4805 104.522 41.3185 104.432 41.111L107.87 39.134L107.921 39.178C107.859 39.3825 107.792 39.5865 107.736 39.793C107.327 41.285 107.056 42.803 107.153 44.3515C107.257 46.0015 107.718 47.546 108.684 48.9245C109.465 50.0395 111.326 50.081 112.156 48.962C112.45 48.5645 112.736 48.149 112.95 47.7055C113.511 46.548 114.03 45.37 114.565 44.2L114.659 43.986C114.62 44.54 114.575 45.0265 114.555 45.5135C114.523 46.274 114.567 47.03 114.827 47.7535C115.05 48.3725 115.428 48.835 116.137 48.9165C116.622 48.972 117.009 48.75 117.365 48.4685C117.918 48.0321 118.376 47.4879 118.711 46.869C119.661 45.1235 120.637 43.3885 121.499 41.599C122.431 39.6635 123.246 37.6715 124.111 35.703L124.254 35.354C124.459 36.1575 124.601 36.9445 124.864 37.6895C125.169 38.554 125.546 39.398 125.957 40.2185C126.152 40.606 126.129 40.8575 125.86 41.1825C124.732 42.5425 123.623 43.919 122.514 45.294C122.268 45.5975 122.024 45.9065 121.819 46.238C121.695 46.4473 121.614 46.6791 121.579 46.92C121.545 47.1418 121.598 47.3683 121.727 47.552C121.856 47.7357 122.051 47.8624 122.271 47.9055C122.716 48.0012 123.171 48.0337 123.625 48.002C125.173 47.888 126.579 47.3445 127.822 46.4235C129.433 45.2305 129.95 43.6025 129.56 41.673C129.454 41.1495 129.268 40.6405 129.086 40.136C129.005 39.9085 128.999 39.749 129.148 39.537C130.435 37.6985 131.535 35.748 132.558 33.7525C132.599 33.674 132.64 33.5955 132.711 33.5115C133.043 35.2365 133.542 36.899 134.436 38.4075C133.98 38.847 133.528 39.2455 133.12 39.6845C132.22 40.6515 131.44 41.7015 131.033 42.982C130.858 43.534 130.724 44.095 130.802 44.6845C130.923 45.6 131.673 46.195 132.573 45.9865C134.5 45.5405 136.164 44.6325 137.379 43.024C138.197 41.941 138.272 40.733 137.929 39.4675C137.835 39.1235 137.724 38.785 137.604 38.3905C138.079 38.243 138.543 38.066 139.022 37.9565C141.512 37.3885 143.974 37.4875 146.373 38.3865C147.774 38.9115 148.905 39.79 149.576 41.172C150.396 42.8615 149.943 44.4645 148.35 45.5325C148.202 45.632 148.032 45.7105 147.909 45.835C147.87 45.8807 147.84 45.934 147.822 45.9917C147.805 46.0494 147.799 46.1101 147.806 46.17C147.817 46.2315 147.979 46.3085 148.073 46.3075C148.596 46.3035 149.021 46.029 149.428 45.747C150.449 45.0405 151.194 44.09 151.355 42.8385L151.386 42.7445L151.348 41.9295C151.332 41.8825 151.359 41.836 151.356 41.8005C151.139 39.978 150.165 38.5645 148.749 37.4565C147.109 36.174 145.173 35.646 143.125 35.5625C141.464 35.491 139.805 35.7463 138.242 36.314C137.794 36.4765 137.349 36.669 136.898 36.8505C136.838 36.741 136.773 36.636 136.719 36.5275C136.256 35.5795 135.695 34.6735 135.571 33.5865C135.483 32.8145 135.375 32.0435 135.559 31.28C135.735 30.5455 135.965 29.8235 136.182 29.099C136.293 28.726 136.215 28.517 135.859 28.349C135.735 28.2871 135.603 28.2437 135.466 28.22C134.591 28.093 133.728 28.1655 132.88 28.412C132.58 28.4995 132.362 28.6675 132.296 28.9995C132.258 29.19 132.18 29.3725 132.126 29.5605C131.905 30.342 131.748 31.1385 131.39 31.883C130.493 33.7505 129.469 35.5475 128.421 37.3315C128.307 37.524 128.188 37.713 128.045 37.9465C127.677 37.1765 127.284 36.4855 127.165 35.6755C127.031 34.7595 126.925 33.845 127.153 32.936C127.322 32.258 127.544 31.5925 127.748 30.9235C127.844 30.6055 127.8 30.4385 127.512 30.271C127.366 30.1865 127.202 30.1115 127.038 30.087C126.141 29.9503 125.224 30.0253 124.361 30.306C124.089 30.394 123.947 30.5695 123.864 30.8495C123.62 31.6755 123.412 32.5215 123.069 33.307C121.682 36.487 120.255 39.6505 118.83 42.8135C118.532 43.474 118.184 44.1115 117.848 44.7545C117.763 44.9175 117.639 45.061 117.533 45.214C117.448 45.1135 117.415 45.0445 117.416 44.9755C117.418 44.569 117.37 44.1505 117.447 43.7575C117.685 42.5689 117.949 41.3855 118.236 40.208C118.471 39.235 118.745 38.271 119.005 37.3045C119.093 36.981 119.094 36.6785 118.862 36.4065C118.471 35.951 117.655 35.851 117.171 36.202L116.957 36.323L116.999 35.978C117.101 35.2385 117.121 34.5015 116.918 33.773C116.665 32.865 116.017 32.3425 115.075 32.3715C114.636 32.385 114.175 32.46 113.769 32.62C112.059 33.29 110.745 34.4765 109.626 35.904C109.522 36.0365 109.394 36.1476 109.247 36.231C107.801 37.033 106.35 37.825 104.899 38.62L103.285 39.5045C102.852 39.0915 102.458 38.663 102.012 38.2995C100.648 37.1875 99.263 36.103 97.89 35.0035C96.673 34.029 95.494 33.014 94.592 31.7235C93.921 30.7635 93.4885 29.713 93.447 28.526C93.3945 27.0135 93.8235 25.6315 94.5935 24.345C95.5785 22.699 96.922 21.378 98.399 20.1815C99.9615 18.9165 101.651 17.8425 103.403 16.862C105.853 15.4905 108.374 14.2765 111.076 13.475C113.847 12.653 116.659 12.1825 119.559 12.5105C120.699 12.6395 121.806 12.9005 122.822 13.458C123.601 13.8845 124.239 14.443 124.536 15.316C124.829 16.175 124.82 17.0455 124.617 17.918C124.205 19.685 123.237 21.1415 122.02 22.443C120.023 24.5765 117.587 26.029 114.844 26.9885C113.268 27.5409 111.627 27.8909 109.962 28.03C108.597 28.1445 107.261 28.0235 105.969 27.549C105.114 27.2345 104.369 26.7535 103.77 26.0555C103.663 25.9305 103.526 25.795 103.326 25.912C103.131 26.027 103.096 26.213 103.162 26.4015C103.271 26.7145 103.372 27.0405 103.543 27.3205C103.971 28.023 104.596 28.5325 105.284 28.9695C106.606 29.81 108.083 30.0925 109.614 30.158C111.938 30.2585 114.206 29.9115 116.441 29.288C119.633 28.398 122.408 26.826 124.633 24.346C126.486 22.281 127.81 19.9505 128.093 17.1365C128.232 15.763 128.084 14.4175 127.441 13.1645C126.744 11.807 125.635 10.7975 124.309 10.102C122.378 9.0895 120.294 8.5 118.143 8.5H115.988C113.383 8.5 110.864 9.2465 108.416 10.137C106.563 10.8115 104.746 11.6075 102.982 12.4885C99.141 14.408 95.5635 16.7225 92.625 19.905C91.161 21.4905 89.9215 23.24 89.2085 25.3C88.9933 25.915 88.8079 26.5401 88.653 27.173M102.572 45.1795C102.406 47.409 101.395 49.2165 99.744 50.6805C98.815 51.5035 97.7495 52.0895 96.5085 52.2955C96.0585 52.37 95.598 52.388 95.1615 52.2015C94.539 51.9355 94.3995 51.383 94.3875 50.7945C94.369 49.8565 94.6975 49.0085 95.148 48.2015C95.736 47.1495 96.598 46.3475 97.5185 45.5985C98.9685 44.418 100.541 43.419 102.152 42.476L102.274 42.426C102.523 43.346 102.641 44.2545 102.572 45.1795ZM115.151 35.49C115.034 36.202 114.887 36.9145 114.679 37.6045C113.96 39.993 113.036 42.3075 112.038 44.591C111.853 45.0135 111.585 45.399 111.351 45.7995C111.312 45.8611 111.264 45.9172 111.21 45.9665C110.921 46.252 110.647 46.237 110.501 45.8635C110.331 45.4295 110.226 44.965 110.136 44.5055C110.076 44.197 110.09 43.873 110.071 43.557C110.091 41.31 110.776 39.268 111.939 37.367C112.419 36.583 112.941 35.836 113.738 35.34C113.987 35.1858 114.255 35.0669 114.536 34.987C114.961 34.8675 115.222 35.064 115.151 35.49ZM123.733 46.424L126.818 42.8225C126.946 44.16 124.673 46.83 123.733 46.424ZM133.585 44.0005C133.367 44.1255 133.129 44.2155 132.906 44.331C132.701 44.437 132.634 44.33 132.628 44.154C132.625 44.0322 132.641 43.9106 132.674 43.7935C133.091 42.3245 133.857 41.0705 134.998 40.0505L135.078 40.0095C135.62 41.527 134.993 43.1935 133.585 44.0005Z" fill="#CB6699"/>
<g clip-path="url(#clip1_16_1394)">
<path d="M57.1565 155.627C57.1306 155.627 57.1054 155.635 57.084 155.649L55.911 156.334C55.8889 156.348 55.8707 156.367 55.8583 156.39C55.8458 156.412 55.8395 156.438 55.84 156.464V157.834C55.84 157.892 55.8675 157.936 55.911 157.965L57.084 158.649C57.1054 158.663 57.1307 158.671 57.1565 158.671C57.1823 158.671 57.2075 158.663 57.229 158.649L58.4 157.965C58.4223 157.951 58.4406 157.932 58.4533 157.909C58.466 157.886 58.4726 157.86 58.4725 157.833V156.465C58.4726 156.439 58.466 156.413 58.4533 156.39C58.4406 156.368 58.4222 156.349 58.4 156.335L57.2285 155.649C57.2072 155.635 57.1821 155.627 57.1565 155.627ZM31.61 163.819C31.3965 163.819 31.184 163.871 31.003 163.973L25.2285 167.336C25.0433 167.445 24.8899 167.6 24.7834 167.787C24.6769 167.973 24.6211 168.184 24.6215 168.398V175.11C24.6215 175.547 24.8525 175.955 25.2285 176.174L26.7485 177.047C27.4865 177.411 27.747 177.41 28.0795 177.41C29.1645 177.41 29.787 176.74 29.787 175.59V168.967C29.7863 168.921 29.7678 168.877 29.7354 168.845C29.7029 168.812 29.659 168.793 29.613 168.792H28.876C28.8297 168.793 28.7856 168.811 28.7529 168.844C28.7202 168.877 28.7016 168.921 28.701 168.967V175.591C28.701 176.101 28.1665 176.611 27.313 176.175L25.7355 175.257C25.6775 175.228 25.648 175.154 25.648 175.096V168.383C25.648 168.325 25.6775 168.253 25.7355 168.224L31.508 164.875C31.5515 164.846 31.6245 164.846 31.6825 164.875L37.4565 168.224C37.514 168.253 37.5425 168.311 37.5425 168.384V175.096C37.5425 175.168 37.514 175.228 37.4565 175.257L31.6825 178.62C31.639 178.649 31.566 178.649 31.508 178.62L30.0325 177.731C29.989 177.702 29.931 177.687 29.8875 177.716C29.4825 177.949 29.4115 177.98 29.0205 178.111C28.9335 178.14 28.789 178.197 29.078 178.357L31.003 179.508C31.191 179.61 31.393 179.668 31.61 179.668C31.827 179.668 32.0435 179.61 32.217 179.538L37.9915 176.174C38.1767 176.065 38.3302 175.91 38.4366 175.723C38.5431 175.537 38.5989 175.325 38.5985 175.11V168.398C38.5985 167.961 38.3675 167.555 37.9915 167.336L32.217 163.973C32.0311 163.871 31.8221 163.818 31.61 163.819ZM40.625 166.884C40.3286 166.885 40.0449 167.004 39.8361 167.214C39.6273 167.425 39.5105 167.709 39.5115 168.005C39.5107 168.302 39.6275 168.586 39.8363 168.796C40.045 169.007 40.3287 169.125 40.625 169.126C41.2335 169.126 41.739 168.617 41.739 168.005C41.7374 167.71 41.6198 167.427 41.4114 167.217C41.203 167.007 40.9206 166.887 40.625 166.884ZM40.61 167.073C40.7332 167.072 40.8556 167.095 40.9699 167.141C41.0842 167.187 41.1881 167.256 41.2757 167.342C41.3633 167.429 41.4328 167.532 41.4802 167.646C41.5275 167.76 41.5517 167.882 41.5515 168.005C41.5515 168.515 41.1315 168.952 40.6105 168.952C40.1045 168.952 39.6845 168.529 39.6845 168.005C39.6845 167.481 40.1185 167.073 40.61 167.073ZM40.2055 167.379V168.66H40.4525V168.152H40.6695C40.7565 168.152 40.785 168.181 40.7995 168.253C40.7995 168.268 40.8425 168.588 40.8425 168.646H41.1025C41.0735 168.588 41.059 168.413 41.0445 168.311C41.0305 168.151 41.0165 168.035 40.8425 168.02C40.9295 167.991 41.074 167.947 41.074 167.714C41.074 167.379 40.784 167.379 40.64 167.379L40.2055 167.379ZM40.423 167.583H40.625C40.698 167.583 40.813 167.583 40.813 167.757C40.813 167.815 40.785 167.933 40.625 167.933H40.4225L40.423 167.583ZM33.188 168.588C31.538 168.588 30.554 169.287 30.554 170.466C30.554 171.733 31.538 172.081 33.1155 172.242C35.0105 172.431 35.1555 172.708 35.1555 173.087C35.1555 173.742 34.6335 174.019 33.418 174.019C31.884 174.019 31.5515 173.64 31.4355 172.868C31.4355 172.781 31.3645 172.723 31.2775 172.723H30.525C30.479 172.724 30.4351 172.743 30.4027 172.775C30.3703 172.808 30.3521 172.852 30.352 172.898C30.352 173.888 30.8725 175.053 33.4055 175.053C35.228 175.053 36.2845 174.324 36.2845 173.043C36.2845 171.79 35.4445 171.456 33.6655 171.223C31.8705 170.99 31.683 170.859 31.683 170.437C31.683 170.087 31.842 169.622 33.173 169.622C34.3595 169.622 34.8075 169.884 34.9815 170.685C34.9902 170.721 35.0105 170.753 35.0393 170.777C35.0681 170.8 35.1038 170.814 35.141 170.815H35.9075C35.9515 170.815 35.995 170.786 36.0245 170.757C36.0513 170.719 36.0661 170.673 36.067 170.626C35.9515 169.228 35.0405 168.588 33.188 168.588Z" fill="#5FA04E"/>
<path d="M43.036 140.332C42.9745 140.331 42.9138 140.347 42.86 140.377C42.804 140.409 42.7573 140.456 42.7245 140.512C42.6917 140.567 42.6738 140.631 42.6725 140.696V150.16C42.6725 150.247 42.6275 150.335 42.541 150.393C42.5011 150.415 42.4564 150.426 42.411 150.426C42.3657 150.426 42.321 150.415 42.281 150.393L40.748 149.506C40.6356 149.441 40.5082 149.407 40.3785 149.407C40.2489 149.407 40.1215 149.441 40.009 149.506L33.875 153.073C33.7615 153.137 33.6669 153.23 33.6008 153.342C33.5347 153.454 33.4994 153.582 33.4985 153.713V160.833C33.4985 161.095 33.6435 161.343 33.875 161.474L40.01 165.041C40.1224 165.105 40.2497 165.139 40.3793 165.139C40.5088 165.139 40.6361 165.105 40.7485 165.041L46.883 161.474C47.1145 161.343 47.2595 161.095 47.2595 160.833V143.084C47.2595 142.808 47.1145 142.559 46.883 142.429L43.223 140.377C43.1651 140.347 43.1008 140.332 43.036 140.332ZM6.84352 149.215C6.72802 149.215 6.61252 149.257 6.51152 149.315L0.376521 152.87C0.261324 152.935 0.16572 153.031 0.0995469 153.145C0.0333736 153.26 -0.00097981 153.391 2.12696e-05 153.524L0.0150213 163.075C0.0150213 163.206 0.0865213 163.337 0.202521 163.396C0.256203 163.431 0.319151 163.45 0.383521 163.45C0.447892 163.45 0.510839 163.431 0.564521 163.396L4.21152 161.299C4.44302 161.168 4.58652 160.92 4.58652 160.658V156.188C4.58652 155.926 4.73152 155.678 4.96352 155.547L6.51152 154.645C6.62702 154.572 6.75802 154.543 6.88802 154.543C7.01802 154.543 7.14852 154.572 7.25002 154.645L8.79802 155.547C9.02952 155.678 9.17452 155.926 9.17452 156.188V160.658C9.17452 160.92 9.31852 161.168 9.54952 161.299L13.1675 163.396C13.2238 163.431 13.2891 163.45 13.3558 163.45C13.4224 163.45 13.4877 163.431 13.544 163.396C13.6015 163.364 13.6493 163.318 13.6824 163.261C13.7155 163.205 13.7327 163.14 13.732 163.075V153.524C13.732 153.262 13.587 153.014 13.355 152.882L7.23502 149.315C7.1321 149.26 7.01925 149.226 6.90302 149.215L6.84352 149.215ZM57.177 149.32C57.0505 149.32 56.925 149.353 56.809 149.419L50.673 152.985C50.4415 153.116 50.298 153.364 50.298 153.626V160.746C50.298 161.008 50.4415 161.256 50.673 161.387L56.765 164.881C56.8747 164.945 56.9996 164.979 57.1268 164.979C57.254 164.979 57.3788 164.945 57.4885 164.881L61.1785 162.814C61.2359 162.783 61.2836 162.736 61.3166 162.679C61.3496 162.623 61.3667 162.559 61.366 162.493C61.3665 162.428 61.3494 162.364 61.3164 162.307C61.2834 162.251 61.2357 162.205 61.1785 162.173L55.015 158.605C54.959 158.572 54.9123 158.525 54.8795 158.469C54.8466 158.413 54.8288 158.35 54.8275 158.285V156.057C54.8268 155.991 54.8439 155.927 54.8769 155.871C54.9099 155.814 54.9577 155.768 55.015 155.737L56.94 154.63C56.9964 154.594 57.0616 154.575 57.1283 154.575C57.1949 154.575 57.2602 154.594 57.3165 154.63L59.2395 155.736C59.2958 155.769 59.3427 155.816 59.3758 155.872C59.4089 155.928 59.427 155.991 59.4285 156.057V157.804C59.4285 157.936 59.5005 158.067 59.616 158.125C59.6724 158.16 59.7378 158.179 59.8045 158.179C59.8713 158.179 59.9366 158.16 59.993 158.125L63.6385 155.985C63.7503 155.919 63.8428 155.826 63.9064 155.713C63.97 155.6 64.0025 155.472 64.0005 155.343V153.611C64.0005 153.349 63.8555 153.102 63.6385 152.971L57.5465 149.419C57.4341 149.354 57.307 149.32 57.1775 149.32L57.177 149.32ZM40.3785 154.637C40.411 154.637 40.444 154.645 40.4735 154.66L42.5705 155.883C42.6285 155.912 42.658 155.984 42.658 156.042V158.488C42.658 158.561 42.6285 158.62 42.5705 158.649L40.473 159.872C40.4436 159.886 40.4113 159.894 40.3785 159.894C40.3458 159.894 40.3135 159.886 40.284 159.872L38.1865 158.649C38.1285 158.62 38.099 158.547 38.099 158.488V156.042C38.099 155.969 38.129 155.912 38.1865 155.882L40.284 154.66C40.3135 154.645 40.3455 154.637 40.3785 154.637Z" fill="#333333"/>
<path d="M23.991 149.446C23.8787 149.382 23.7515 149.348 23.622 149.348C23.4926 149.348 23.3654 149.382 23.253 149.446L17.161 152.985C17.0493 153.05 16.9568 153.143 16.8932 153.256C16.8295 153.369 16.7971 153.496 16.799 153.625V160.716C16.799 160.978 16.944 161.226 17.161 161.357L23.253 164.895C23.3654 164.959 23.4926 164.993 23.622 164.993C23.7515 164.993 23.8787 164.959 23.991 164.895L30.0825 161.357C30.314 161.226 30.4445 160.978 30.4445 160.716V153.625C30.4445 153.363 30.2995 153.115 30.0825 152.985L23.991 149.446Z" fill="url(#paint0_linear_16_1394)"/>
<path d="M30.0969 152.985L23.9764 149.447C23.9164 149.416 23.8534 149.392 23.7884 149.374L16.9294 161.182C16.9874 161.255 17.0594 161.313 17.1319 161.357L23.2529 164.895C23.4264 164.997 23.6289 165.026 23.8169 164.968L30.2564 153.116C30.2141 153.061 30.1595 153.016 30.0969 152.985Z" fill="url(#paint1_linear_16_1394)"/>
<path d="M30.097 161.356C30.271 161.254 30.401 161.08 30.459 160.89L23.759 149.359C23.586 149.33 23.3975 149.344 23.2385 149.446L17.161 152.97L23.716 164.996C23.8025 164.982 23.904 164.953 23.991 164.909L30.097 161.356Z" fill="url(#paint2_linear_16_1394)"/>
</g>
<defs>
<linearGradient id="paint0_linear_16_1394" x1="26.1027" y1="152.081" x2="20.5393" y2="163.36" gradientUnits="userSpaceOnUse">
<stop stop-color="#3F873F"/>
<stop offset="0.33" stop-color="#3F8B3D"/>
<stop offset="0.637" stop-color="#3E9638"/>
<stop offset="0.934" stop-color="#3DA92E"/>
<stop offset="1" stop-color="#3DAE2B"/>
</linearGradient>
<linearGradient id="paint1_linear_16_1394" x1="22.6962" y1="157.999" x2="38.2188" y2="146.6" gradientUnits="userSpaceOnUse">
<stop offset="0.138" stop-color="#3F873F"/>
<stop offset="0.402" stop-color="#52A044"/>
<stop offset="0.713" stop-color="#64B749"/>
<stop offset="0.908" stop-color="#6ABF4B"/>
</linearGradient>
<linearGradient id="paint2_linear_16_1394" x1="16.5762" y1="157.168" x2="30.6724" y2="157.168" gradientUnits="userSpaceOnUse">
<stop offset="0.092" stop-color="#6ABF4B"/>
<stop offset="0.287" stop-color="#64B749"/>
<stop offset="0.598" stop-color="#52A044"/>
<stop offset="0.862" stop-color="#3F873F"/>
</linearGradient>
<clipPath id="clip0_16_1394">
<rect width="64" height="64" fill="white" transform="translate(0 384)"/>
</clipPath>
<clipPath id="clip1_16_1394">
<rect width="64" height="64" fill="white" transform="translate(0 128)"/>
</clipPath>
</defs>
</svg>
