<svg width="152" height="448" viewBox="0 0 152 447" fill="none" xmlns="http://www.w3.org/2000/svg">
<path d="M32 135.68L8.16602 144.18L11.8008 175.693L32 186.881L52.1992 175.693L55.834 144.18L32 135.68Z" fill="#DD0031"/>
<path d="M32 135.68V141.363V141.338V186.881L52.1992 175.693L55.834 144.18L32 135.68Z" fill="#C3002F"/>
<path d="M32 141.338L17.1016 174.746H22.6562L25.6504 167.27H38.2969L41.293 174.746H46.8477L32 141.338ZM36.3516 162.662H27.6484L32 152.191L36.3516 162.662Z" fill="white"/>
<path d="M97.407 313.061L92.38 256.676H147.62L142.588 313.053L119.967 319.324L97.407 313.061Z" fill="#1572B6"/>
<path d="M120 314.531L138.28 309.463L142.58 261.286H120V314.531Z" fill="#33A9DC"/>
<path d="M120 281.714H129.151L129.783 274.633H120V267.717H137.341L137.175 269.573L135.475 288.63H120V281.714Z" fill="white"/>
<path d="M120.041 299.674L120.011 299.683L112.309 297.604L111.817 292.088H104.876L105.844 302.947L120.01 306.878L120.041 306.869V299.674Z" fill="#EBEBEB"/>
<path d="M128.564 288.337L127.731 297.598L120.018 299.68V306.875L134.195 302.946L134.299 301.778L135.502 288.337H128.564Z" fill="white"/>
<path d="M120.024 267.717V274.633H103.32L103.181 273.079L102.866 269.573L102.701 267.717H120.024ZM120 281.715V288.631H112.396L112.257 287.077L111.942 283.571L111.777 281.715H120Z" fill="#EBEBEB"/>
<path d="M120 37.6998C123.148 37.6998 125.7 35.1478 125.7 31.9998C125.7 28.8518 123.148 26.2998 120 26.2998C116.852 26.2998 114.3 28.8518 114.3 31.9998C114.3 35.1478 116.852 37.6998 120 37.6998Z" fill="#61DAFB"/>
<path d="M141.65 22.5998C140.55 22.1998 139.4 21.7998 138.2 21.4498C138.5 20.2498 138.75 19.0498 138.95 17.8998C140 11.2998 138.85 6.6498 135.65 4.8498C134.7 4.2998 133.65 4.0498 132.45 4.0498C128.95 4.0498 124.5 6.6498 120 10.9998C115.5 6.6498 111.05 4.0498 107.55 4.0498C106.35 4.0498 105.3 4.2998 104.35 4.8498C101.15 6.6998 100 11.3498 101.05 17.8998C101.25 19.0498 101.5 20.2498 101.8 21.4498C100.6 21.7998 99.45 22.1498 98.35 22.5998C92.1 24.9998 88.7 28.2998 88.7 31.9998C88.7 35.6998 92.15 38.9998 98.35 41.3998C99.45 41.7998 100.6 42.1998 101.8 42.5498C101.5 43.7498 101.25 44.9498 101.05 46.0998C100 52.6998 101.15 57.3498 104.35 59.1498C105.3 59.6998 106.35 59.9498 107.55 59.9498C111.1 59.9498 115.55 57.3498 120 52.9998C124.5 57.3498 128.95 59.9498 132.45 59.9498C133.65 59.9498 134.7 59.6998 135.65 59.1498C138.85 57.2998 140 52.6498 138.95 46.0998C138.75 44.9498 138.5 43.7498 138.2 42.5498C139.4 42.1998 140.55 41.8498 141.65 41.3998C147.9 38.9998 151.3 35.6998 151.3 31.9998C151.3 28.2998 147.9 24.9998 141.65 22.5998ZM134.25 7.3498C136.3 8.5498 137 12.2498 136.15 17.4998C136 18.5498 135.75 19.6498 135.45 20.7998C132.85 20.1998 130.1 19.7998 127.2 19.5498C125.5 17.1498 123.75 14.9998 122 13.0498C125.7 9.3998 129.45 6.8998 132.5 6.8998C133.15 6.8998 133.75 7.0498 134.25 7.3498ZM128.65 36.9998C127.75 38.5998 126.7 40.1998 125.6 41.7998C123.75 41.9498 121.9 41.9998 120 41.9998C118.05 41.9998 116.2 41.9498 114.4 41.7998C113.3 40.1998 112.3 38.5998 111.4 36.9998C110.45 35.3498 109.55 33.6498 108.75 31.9998C109.55 30.3498 110.45 28.6498 111.4 26.9998C112.3 25.3998 113.35 23.7998 114.45 22.1998C116.3 22.0498 118.15 21.9998 120.05 21.9998C122 21.9998 123.85 22.0498 125.65 22.1998C126.75 23.7998 127.75 25.3998 128.65 26.9998C129.6 28.6498 130.5 30.3498 131.3 31.9998C130.45 33.6498 129.6 35.2998 128.65 36.9998ZM132.8 35.3498C133.55 37.0998 134.15 38.7998 134.7 40.4998C133 40.8998 131.2 41.1998 129.3 41.4498C129.9 40.4998 130.55 39.4998 131.1 38.4498C131.7 37.3998 132.25 36.3498 132.8 35.3498ZM120 48.8998C118.8 47.5998 117.65 46.1998 116.55 44.7498C117.7 44.7998 118.85 44.8498 120 44.8498C121.15 44.8498 122.3 44.7998 123.45 44.7498C122.35 46.1998 121.2 47.5998 120 48.8998ZM110.7 41.3998C108.8 41.1498 107 40.8498 105.3 40.4498C105.85 38.7998 106.45 37.0498 107.2 35.2998C107.75 36.2998 108.3 37.3498 108.9 38.3498C109.5 39.4498 110.1 40.3998 110.7 41.3998ZM107.2 28.6498C106.45 26.8998 105.85 25.1998 105.3 23.4998C107 23.0998 108.8 22.7998 110.7 22.5498C110.1 23.4998 109.45 24.4998 108.9 25.5498C108.3 26.5998 107.75 27.6498 107.2 28.6498ZM120 15.0998C121.2 16.3998 122.35 17.7998 123.45 19.2498C122.3 19.1998 121.15 19.1498 120 19.1498C118.85 19.1498 117.7 19.1998 116.55 19.2498C117.65 17.7998 118.8 16.3998 120 15.0998ZM131.1 25.5998L129.3 22.5998C131.2 22.8498 133 23.1498 134.7 23.5498C134.15 25.1998 133.55 26.9498 132.8 28.6998C132.25 27.6498 131.7 26.5998 131.1 25.5998ZM103.85 17.4998C103 12.2498 103.7 8.5498 105.75 7.3498C106.25 7.0498 106.85 6.8998 107.5 6.8998C110.5 6.8998 114.25 9.3498 118 13.0498C116.25 14.9498 114.5 17.1498 112.8 19.5498C109.9 19.7998 107.15 20.2498 104.55 20.7998C104.25 19.6498 104.05 18.5498 103.85 17.4998ZM91.5 31.9998C91.5 29.6498 94.35 27.1498 99.35 25.2998C100.35 24.8998 101.45 24.5498 102.55 24.2498C103.35 26.7498 104.35 29.3998 105.55 32.0498C104.35 34.6998 103.3 37.2998 102.55 39.7998C95.65 37.7998 91.5 34.7998 91.5 31.9998ZM105.75 56.6498C103.7 55.4498 103 51.7498 103.85 46.4998C104 45.4498 104.25 44.3498 104.55 43.1998C107.15 43.7998 109.9 44.1998 112.8 44.4498C114.5 46.8498 116.25 48.9998 118 50.9498C114.3 54.5998 110.55 57.0998 107.5 57.0998C106.85 57.0998 106.25 56.9498 105.75 56.6498ZM136.15 46.4998C137 51.7498 136.3 55.4498 134.25 56.6498C133.75 56.9498 133.15 57.0998 132.5 57.0998C129.5 57.0998 125.75 54.6498 122 50.9498C123.75 49.0498 125.5 46.8498 127.2 44.4498C130.1 44.1998 132.85 43.7498 135.45 43.1998C135.75 44.3498 135.95 45.4498 136.15 46.4998ZM140.65 38.6998C139.65 39.0998 138.55 39.4498 137.45 39.7498C136.65 37.2498 135.65 34.5998 134.45 31.9498C135.65 29.2998 136.7 26.6998 137.45 24.1998C144.35 26.1998 148.5 29.1998 148.5 31.9998C148.5 34.3498 145.6 36.8498 140.65 38.6998Z" fill="#61DAFB"/>
<path d="M9.51849 440.938L4.51599 384.831H59.484L54.476 440.93L31.9665 447.17L9.51849 440.938Z" fill="#E44D26"/>
<path d="M32 442.4L50.189 437.357L54.4685 389.418H32V442.4Z" fill="#F16529"/>
<path d="M32 410.227H22.894L22.265 403.18H32V396.299H14.7445L14.9095 398.145L16.6005 417.109H32V410.227ZM32 428.099L31.9695 428.107L24.306 426.037L23.8165 420.55H16.908L17.872 431.354L31.9685 435.267L32 435.259V428.099Z" fill="#EBEBEB"/>
<path d="M31.976 410.227V417.109H40.4495L39.651 426.033L31.976 428.105V435.264L46.0835 431.354L46.187 430.192L47.804 412.075L47.9715 410.227H46.1175H31.976ZM31.976 396.299V403.18H48.598L48.736 401.634L49.05 398.145L49.2145 396.299H31.976Z" fill="white"/>
</svg>
