<svg width="64" height="64" viewBox="0 0 64 64" fill="none" xmlns="http://www.w3.org/2000/svg">
<rect width="64" height="64" rx="16" fill="#2196F3"/>
<path opacity="0.4" d="M32 48.6668C41.2048 48.6668 48.6667 41.2049 48.6667 32.0002C48.6667 22.7954 41.2048 15.3335 32 15.3335C22.7953 15.3335 15.3334 22.7954 15.3334 32.0002C15.3334 41.2049 22.7953 48.6668 32 48.6668Z" fill="white"/>
<path d="M38.1834 38.5499C37.9667 38.5499 37.75 38.4999 37.55 38.3666L32.3834 35.2833C31.1 34.5166 30.15 32.8333 30.15 31.3499V24.5166C30.15 23.8333 30.7167 23.2666 31.4 23.2666C32.0834 23.2666 32.65 23.8333 32.65 24.5166V31.3499C32.65 31.9499 33.15 32.8333 33.6667 33.1333L38.8334 36.2166C39.4334 36.5666 39.6167 37.3333 39.2667 37.9333C39.0167 38.3333 38.6 38.5499 38.1834 38.5499Z" fill="white"/>
</svg>
