<svg width="45" height="31" viewBox="0 0 45 31" fill="none" xmlns="http://www.w3.org/2000/svg">
<path d="M28.1667 29.2532H25.6627V27.2595C25.6627 26.9149 25.4286 26.6318 25.1436 26.6318H20.9397C20.6547 26.6318 20.4206 26.9149 20.4206 27.2595V29.2532H17.9166C17.6112 29.2532 17.3262 29.364 17.0718 29.5978L15.7281 30.8408H30.3246L28.981 29.5978C28.7673 29.364 28.4823 29.2532 28.1667 29.2532Z" fill="white" fill-opacity="0.4"/>
<path d="M13.8469 19.2278C18.1932 19.2278 23.2164 17.9356 28.008 15.5881C32.1584 13.5636 35.6675 10.8931 38.09 8.09327V4.00127C38.09 1.93373 36.7184 0.275391 35.0084 0.275391H11.1037C9.39368 0.275391 8.02209 1.93373 8.02209 4.00127V18.1725C9.5718 18.8617 11.5312 19.2278 13.8469 19.2278Z" fill="white"/>
<path d="M27.1018 21.2956C22.0786 23.7723 16.7347 25.1076 12.0144 25.1076C10.6784 25.1076 9.43152 24.9784 8.2915 24.7846C8.75464 26.1199 9.8234 27.0459 11.1415 27.0459H35.0462C36.7563 27.0459 38.1279 25.3876 38.1279 23.3201V13.0039C35.4381 16.1483 31.6262 19.0773 27.1018 21.2956Z" fill="white"/>
<path d="M13.8463 19.2277C18.1926 19.2277 23.2158 17.9355 28.0074 15.588C30.6437 14.2958 33.0662 12.7236 35.0613 11.0652V5.14259C35.0613 4.49648 34.6338 3.93652 34.0638 3.93652H12.0472C11.5128 3.93652 11.0497 4.45341 11.0497 5.14259V19.0123C11.9047 19.1415 12.8488 19.2277 13.8463 19.2277Z" fill="#252641"/>
<path d="M27.0994 21.2949C25.3537 22.1349 23.6259 22.8671 21.8446 23.4486H34.0998C34.6342 23.4486 35.0973 22.9317 35.0973 22.2425V16.083C32.8173 18.0213 30.1097 19.8304 27.0994 21.2949Z" fill="#252641"/>
<path d="M30.9764 6.1123H32.6152C32.7755 6.1123 32.918 6.2846 32.918 6.47843V8.45982C32.918 8.78288 32.5796 8.95517 32.4193 8.69673L30.7805 6.71534C30.5845 6.5215 30.7092 6.1123 30.9764 6.1123Z" fill="#FCFCFC"/>
<path d="M32.4534 11.6688C32.1862 11.9919 31.7587 11.9919 31.4915 11.6688L28.2139 7.70606C27.9468 7.38301 27.9468 6.86612 28.2139 6.54307C28.4811 6.22002 28.9086 6.22002 29.1758 6.54307L32.4534 10.5059C32.7562 10.8074 32.7562 11.3458 32.4534 11.6688Z" fill="white"/>
<path d="M28.3624 16.7367C18.092 21.7825 7.32272 21.6841 4.34032 16.5028C2.53866 13.4015 3.94334 9.19248 7.55684 5.21733V4.42969C1.70399 9.35247 -0.932336 15.2475 1.46988 19.4319C4.73729 25.0931 16.046 25.4254 26.7338 20.1703C34.083 16.5644 39.2233 11.2477 40.6382 6.46034C38.3886 10.1524 34.0423 13.943 28.3624 16.7367Z" fill="white" fill-opacity="0.4"/>
<path opacity="0.8" d="M38.3669 9.46362C35.9342 12.1465 32.5141 14.7187 28.3611 16.7493C18.0906 21.7952 7.32137 21.6967 4.33896 16.5155C2.5373 13.4142 3.94199 9.20518 7.55549 5.23003V4.44238C7.18905 4.73775 6.84296 5.04542 6.50706 5.36541C2.60856 9.66054 1.11226 14.3372 3.1175 17.8077C6.38492 23.469 17.6936 23.8012 28.3814 18.5462C31.6692 16.9216 34.5193 14.9648 36.7994 12.8603C38.3873 11.1005 39.568 9.30363 40.2805 7.54374C39.6902 8.15909 39.0591 8.81136 38.3669 9.46362Z" fill="white"/>
<path d="M44.4156 3.62974L42.2373 4.7866L42.4714 7.65412L40.8835 5.5004L38.7052 6.65726L39.8962 4.15894L38.3286 2.00522L40.6392 2.63288L41.8403 0.15918L42.0744 3.0267L44.4156 3.62974Z" fill="white" fill-opacity="0.4"/>
</svg>
