<svg width="64" height="64" viewBox="0 0 64 64" fill="none" xmlns="http://www.w3.org/2000/svg">
<rect width="64" height="64" rx="16" fill="#2196F3"/>
<path opacity="0.4" d="M41.2166 24.9502C41.0999 24.9335 40.9833 24.9335 40.8666 24.9502C38.2833 24.8668 36.2333 22.7502 36.2333 20.1502C36.2333 17.5002 38.3833 15.3335 41.0499 15.3335C43.6999 15.3335 45.8666 17.4835 45.8666 20.1502C45.8499 22.7502 43.7999 24.8668 41.2166 24.9502Z" fill="white"/>
<path opacity="0.4" d="M46.65 36.5002C44.7833 37.7502 42.1666 38.2168 39.75 37.9002C40.3833 36.5335 40.7166 35.0169 40.7333 33.4169C40.7333 31.7502 40.3666 30.1669 39.6666 28.7835C42.1333 28.4502 44.75 28.9168 46.6333 30.1668C49.2666 31.9002 49.2666 34.7502 46.65 36.5002Z" fill="white"/>
<path opacity="0.4" d="M22.7334 24.9502C22.85 24.9335 22.9667 24.9335 23.0834 24.9502C25.6667 24.8668 27.7167 22.7502 27.7167 20.1502C27.7167 17.5002 25.5667 15.3335 22.9 15.3335C20.25 15.3335 18.0834 17.4835 18.0834 20.1502C18.1 22.7502 20.15 24.8668 22.7334 24.9502Z" fill="white"/>
<path opacity="0.4" d="M22.9166 33.4167C22.9166 35.0333 23.2666 36.5667 23.8999 37.95C21.5499 38.2 19.1 37.7 17.3 36.5167C14.6666 34.7667 14.6666 31.9167 17.3 30.1667C19.0833 28.9667 21.6 28.4833 23.9666 28.75C23.2833 30.15 22.9166 31.7334 22.9166 33.4167Z" fill="white"/>
<path d="M32.2 38.45C32.0667 38.4333 31.9167 38.4333 31.7667 38.45C28.7 38.35 26.25 35.8333 26.25 32.7333C26.25 29.5667 28.8 27 31.9833 27C35.15 27 37.7167 29.5667 37.7167 32.7333C37.7167 35.8333 35.2833 38.35 32.2 38.45Z" fill="white"/>
<path d="M26.7834 41.8999C24.2667 43.5832 24.2667 46.3499 26.7834 48.0166C29.65 49.9332 34.35 49.9332 37.2167 48.0166C39.7334 46.3332 39.7334 43.5666 37.2167 41.8999C34.3667 39.9832 29.6667 39.9832 26.7834 41.8999Z" fill="white"/>
</svg>
