<svg width="64" height="64" viewBox="0 0 64 64" fill="none" xmlns="http://www.w3.org/2000/svg">
<rect width="64" height="64" rx="16" fill="#2196F3"/>
<path opacity="0.4" d="M42.6334 33.3999V41.6166C42.6334 43.7332 40.9834 45.9999 39 46.6666L33.6834 48.4332C32.75 48.7499 31.2334 48.7499 30.3167 48.4332L25 46.6666C23 45.9999 21.3667 43.7332 21.3667 41.6166L21.3834 33.3999L28.75 38.1999C30.55 39.3832 33.5167 39.3832 35.3167 38.1999L42.6334 33.3999Z" fill="white"/>
<path d="M45.3 22.7666L35.3167 16.2166C33.5167 15.0333 30.55 15.0333 28.75 16.2166L18.7167 22.7666C15.5 24.8499 15.5 29.5666 18.7167 31.6666L21.3834 33.3999L28.75 38.1999C30.55 39.3833 33.5167 39.3833 35.3167 38.1999L42.6334 33.3999L44.9167 31.8999V36.9999C44.9167 37.6833 45.4834 38.2499 46.1667 38.2499C46.85 38.2499 47.4167 37.6833 47.4167 36.9999V28.7999C48.0834 26.6499 47.4 24.1499 45.3 22.7666Z" fill="white"/>
</svg>
